<?xml version="1.0" encoding="utf-8"?>
<!-- Generator: Adobe Illustrator 24.1.2, SVG Export Plug-In . SVG Version: 6.00 Build 0)  -->
<svg version="1.1" id="Layer_1" xmlns="http://www.w3.org/2000/svg" xmlns:xlink="http://www.w3.org/1999/xlink" x="0px" y="0px"
	 viewBox="0 0 16 16" style="enable-background:new 0 0 16 16;" xml:space="preserve">
<style type="text/css">
	.st0{fill:#454545;}
	.st1{fill:#F8BC22;}
</style>
<g>
	<g>
		<path class="st0" d="M5.62,5.23C5.61,5.56,5.64,6.14,5.93,6.78c0.11,0.26,0.39,0.78,0.93,1.24c0.36,0.31,0.79,0.67,1.34,0.61
			c0.33-0.03,0.56-0.2,0.7-0.29c0.42-0.3,0.62-0.69,0.73-0.93c0.5-1.07,0.4-2.38,0.37-2.77c0.38,0.9,0.42,1.62,0.39,2.07
			c-0.02,0.28-0.09,1.06-0.29,1.83C10.07,8.65,10,8.9,9.96,9.26c-0.05,0.43-0.03,0.76-0.03,0.86c0.03,0.57,0.02,2.14,0,4.53
			c0,0.12,0,0.34-0.13,0.57c-0.03,0.07-0.12,0.22-0.28,0.34c-0.17,0.12-0.34,0.16-0.47,0.18c-0.61,0.09-1.55,0.06-1.68,0.05
			c-0.14,0.01-0.39,0-0.65-0.15c-0.18-0.1-0.27-0.22-0.3-0.25c-0.16-0.21-0.19-0.43-0.19-0.53c0-0.47,0-0.94,0-1.41
			c0.52,0,1.04,0,1.56,0c0,0.34,0,0.68,0,1.02c0.01,0.02,0.03,0.11,0.11,0.16c0.06,0.04,0.21,0.06,0.25,0.06
			c0.14,0,0.27-0.1,0.3-0.13c0-1.37,0-2.74,0-4.11c-0.04-0.11-0.24-0.27-0.37-0.42C7.92,9.84,7.76,9.76,7.66,9.7
			c0,0-0.5-0.29-0.98-0.69C6.6,8.95,6.27,8.67,6.01,8.24C5.6,7.58,5.56,6.93,5.53,6.48C5.52,6.18,5.52,5.75,5.62,5.23z"/>
	</g>
	<g>
		<path class="st0" d="M4.22,7.31C4.17,7.17,4.06,6.8,4.19,6.37c0.23-0.73,0.97-0.97,1.04-0.99c0.03,0.09,0.22,0.65-0.11,1.22
			C4.83,7.13,4.32,7.28,4.22,7.31z"/>
	</g>
	<g>
		<path class="st0" d="M3.29,4.95c0.1-0.11,0.38-0.38,0.81-0.46C4.86,4.35,5.42,4.9,5.47,4.95C5.4,5.02,4.99,5.44,4.34,5.42
			C3.73,5.4,3.36,5.02,3.29,4.95z"/>
	</g>
	<g>
		<path class="st0" d="M5.93,3.24c0.12,0.09,0.42,0.32,0.56,0.75C6.72,4.72,6.24,5.34,6.2,5.4C6.12,5.35,5.65,4.99,5.59,4.34
			C5.53,3.73,5.87,3.32,5.93,3.24z"/>
	</g>
	<g>
		<path class="st0" d="M4.01,2.82c0.15,0,0.53,0.03,0.88,0.31c0.6,0.48,0.55,1.26,0.54,1.33c-0.09,0-0.68-0.04-1.1-0.54
			C3.95,3.45,4,2.92,4.01,2.82z"/>
	</g>
	<g>
		<path class="st0" d="M5.38,1.25c0.11,0.1,0.38,0.38,0.45,0.82c0.13,0.76-0.42,1.3-0.48,1.35C5.29,3.36,4.87,2.94,4.9,2.29
			C4.92,1.69,5.31,1.32,5.38,1.25z"/>
	</g>
	<g>
		<path class="st0" d="M6.36,1.53c0.12,0.08,0.43,0.32,0.57,0.74C7.17,3,6.7,3.62,6.65,3.68C6.58,3.63,6.1,3.28,6.03,2.62
			C5.96,2.02,6.29,1.6,6.36,1.53z"/>
	</g>
	<g>
		<path class="st0" d="M7.56,0.21C7.7,0.26,8.05,0.42,8.29,0.79C8.7,1.44,8.4,2.16,8.37,2.23C8.29,2.19,7.74,1.97,7.51,1.35
			C7.3,0.79,7.52,0.3,7.56,0.21z"/>
	</g>
	<g>
		<path class="st0" d="M10.22,0.36c0.09,0.12,0.31,0.44,0.31,0.88c0,0.77-0.64,1.21-0.7,1.25c-0.05-0.07-0.4-0.56-0.26-1.2
			C9.7,0.71,10.14,0.42,10.22,0.36z"/>
	</g>
	<g>
		<path class="st0" d="M8.66,1.52C8.8,1.56,9.17,1.7,9.43,2.06C9.88,2.68,9.62,3.41,9.6,3.48C9.51,3.45,8.95,3.27,8.68,2.67
			C8.44,2.11,8.63,1.61,8.66,1.52z"/>
	</g>
	<g>
		<path class="st0" d="M7.06,2.15c0.15-0.01,0.53-0.03,0.91,0.2c0.65,0.4,0.69,1.18,0.7,1.25C8.58,3.61,7.99,3.65,7.52,3.2
			C7.08,2.78,7.07,2.25,7.06,2.15z"/>
	</g>
	<g>
		<path class="st0" d="M13.04,3.69c0,0.15-0.03,0.53-0.31,0.88c-0.48,0.6-1.26,0.55-1.33,0.55c0-0.09,0.03-0.68,0.54-1.1
			C12.41,3.63,12.94,3.68,13.04,3.69z"/>
	</g>
	<g>
		<path class="st0" d="M11.39,3.58c0.05,0.14,0.16,0.51,0.03,0.93c-0.23,0.73-0.98,0.96-1.05,0.98c-0.03-0.09-0.21-0.65,0.11-1.22
			C10.78,3.75,11.3,3.6,11.39,3.58z"/>
	</g>
	<g>
		<path class="st0" d="M10.34,2.38c0.1,0.11,0.34,0.42,0.37,0.86c0.05,0.76-0.56,1.25-0.61,1.3c-0.06-0.07-0.44-0.53-0.34-1.18
			C9.83,2.76,10.26,2.44,10.34,2.38z"/>
	</g>
	<g>
		<path class="st0" d="M11.86,5.3c0.03,0.15,0.07,0.53-0.13,0.93c-0.35,0.68-1.12,0.79-1.2,0.79c-0.01-0.09-0.1-0.68,0.32-1.18
			C11.23,5.37,11.76,5.31,11.86,5.3z"/>
	</g>
	<g>
		<circle class="st1" cx="8.13" cy="6.75" r="1.12"/>
	</g>
</g>
</svg>
